<svg xmlns="http://www.w3.org/2000/svg" width="123" height="134" viewBox="0 0 123 134"><defs><mask id="zxznb" width="2" height="2" x="-1" y="-1"><path fill="#fff" d="M4 0h115v125H4z"/><path d="M75.838 4.99c11.53 5.902 19.841 10.547 30.618 16.532 10.43 5.196 12.551 11.57 12.527 24.682 0 11.887.036 21.074 0 34.459.044 13.371-2.616 15.57-13.216 22.493a2120.838 2120.838 0 0 1-29.929 17.13c-9.88 6.41-18.219 6.148-27.234 0-11.011-5.974-18.962-10.548-29.929-17.13C8.08 96.686 4.22 91.746 4.033 79.073c.03-12.09-.098-20.75 0-32.87-.037-12.424 4.212-19.033 14.642-24.08C29.871 15.077 37.593 10.643 48.604 4.99c12.113-6.642 15.19-6.692 27.234 0z"/></mask><filter id="zxzna" width="145" height="160" x="-11" y="-15" filterUnits="userSpaceOnUse"><feOffset dy="5" in="SourceGraphic" result="FeOffset1068Out"/><feGaussianBlur in="FeOffset1068Out" result="FeGaussianBlur1069Out" stdDeviation="2 2"/></filter></defs><g><g><g filter="url(#zxzna)"><path fill="none" d="M75.838 4.99c11.53 5.902 19.841 10.547 30.618 16.532 10.43 5.196 12.551 11.57 12.527 24.682 0 11.887.036 21.074 0 34.459.044 13.371-2.616 15.57-13.216 22.493a2120.838 2120.838 0 0 1-29.929 17.13c-9.88 6.41-18.219 6.148-27.234 0-11.011-5.974-18.962-10.548-29.929-17.13C8.08 96.686 4.22 91.746 4.033 79.073c.03-12.09-.098-20.75 0-32.87-.037-12.424 4.212-19.033 14.642-24.08C29.871 15.077 37.593 10.643 48.604 4.99c12.113-6.642 15.19-6.692 27.234 0z" mask="url(&quot;#zxznb&quot;)"/><path fill-opacity=".19" d="M75.838 4.99c11.53 5.902 19.841 10.547 30.618 16.532 10.43 5.196 12.551 11.57 12.527 24.682 0 11.887.036 21.074 0 34.459.044 13.371-2.616 15.57-13.216 22.493a2120.838 2120.838 0 0 1-29.929 17.13c-9.88 6.41-18.219 6.148-27.234 0-11.011-5.974-18.962-10.548-29.929-17.13C8.08 96.686 4.22 91.746 4.033 79.073c.03-12.09-.098-20.75 0-32.87-.037-12.424 4.212-19.033 14.642-24.08C29.871 15.077 37.593 10.643 48.604 4.99c12.113-6.642 15.19-6.692 27.234 0z"/></g><path fill="#fff" d="M75.838 4.99c11.53 5.902 19.841 10.547 30.618 16.532 10.43 5.196 12.551 11.57 12.527 24.682 0 11.887.036 21.074 0 34.459.044 13.371-2.616 15.57-13.216 22.493a2120.838 2120.838 0 0 1-29.929 17.13c-9.88 6.41-18.219 6.148-27.234 0-11.011-5.974-18.962-10.548-29.929-17.13C8.08 96.686 4.22 91.746 4.033 79.073c.03-12.09-.098-20.75 0-32.87-.037-12.424 4.212-19.033 14.642-24.08C29.871 15.077 37.593 10.643 48.604 4.99c12.113-6.642 15.19-6.692 27.234 0z"/></g></g></svg>