<svg xmlns="http://www.w3.org/2000/svg" width="38" height="38" viewBox="0 0 38 38"><g><g><path fill="#404041" d="M33.25 34.435s-6.398 1.781-13.072 3.563h-2.405C11.154 36.216 4.75 34.435 4.75 34.435 2.238 33.62 0 32.31 0 29.685V4.747a4.75 4.75 0 0 1 4.75-4.75s7.072 1.968 13.023 3.563c.784 0 1.572.03 2.356 0a2102.95 2102.95 0 0 0 13.12-3.562A4.75 4.75 0 0 1 38 4.747v24.938c0 2.624-2.311 4.118-4.75 4.75zM4.75 2.373a2.375 2.375 0 0 0-2.375 2.374v24.938c0 1.312 1.026 2.004 2.375 2.376 0 0 6.577 1.816 13.062 3.559V5.934zm30.875 2.374a2.375 2.375 0 0 0-2.375-2.374L20.187 5.934v29.661a1091.954 1091.954 0 0 0 13.063-3.534c1.274-.41 2.375-1.064 2.375-2.377z"/></g></g></svg>