<svg xmlns="http://www.w3.org/2000/svg" width="38" height="38" viewBox="0 0 38 38"><g><g><path fill="#404041" d="M19 37.997c-10.493 0-19-8.505-19-19 0-10.492 8.507-19 19-19s19 8.508 19 19c0 10.495-8.507 19-19 19zm0-35.623c-9.182 0-16.625 7.442-16.625 16.623 0 9.183 7.443 16.625 16.625 16.625s16.625-7.442 16.625-16.625c0-9.181-7.443-16.623-16.625-16.623zm.548 24.27c-.061.176-.15.341-.295.479a1.188 1.188 0 0 1-1.678-.056l-5.43-5.007a1.187 1.187 0 0 1 1.734-1.624l4.249 3.919L25.722 11.2a1.187 1.187 0 0 1 2.057 1.188z"/></g></g></svg>