<svg xmlns="http://www.w3.org/2000/svg" width="40" height="40" viewBox="0 0 40 40"><g><g><path fill="#404041" d="M38.75 24.998h-7.5a1.25 1.25 0 0 1 0-2.5h7.5a1.249 1.249 0 1 1 0 2.5zm0-7.5h-10a1.25 1.25 0 1 1 0-2.5h10a1.25 1.25 0 0 1 0 2.5zm0-7.5h-10a1.25 1.25 0 0 1 0-2.5h10a1.25 1.25 0 1 1 0 2.5zm-11.25 17.5v5a7.5 7.5 0 0 1-7.5 7.5H7.5a7.5 7.5 0 0 1-7.5-7.5v-5c0-3.283 2.124-6.044 5.062-7.06-1.6-2.159-2.562-4.925-2.562-7.939C2.5 5.594 7.537-.002 13.75-.002S25 5.594 25 12.499c0 3.014-.961 5.78-2.562 7.939 2.938 1.016 5.062 3.777 5.062 7.06zm-5-14.999c0-5.524-3.918-10-8.75-10-4.833 0-8.75 4.476-8.75 10 0 5.522 3.917 10 8.75 10 4.832 0 8.75-4.478 8.75-10zM25 28.123c0-2.658-2.017-4.872-4.72-5.46-1.842 1.465-4.092 2.335-6.53 2.335-2.438 0-4.688-.87-6.53-2.335-2.703.588-4.72 2.802-4.72 5.46v3.75c0 3.107 2.747 5.625 6.136 5.625h10.228c3.389 0 6.136-2.518 6.136-5.625zm6.25 1.875h7.5a1.25 1.25 0 1 1 0 2.5h-7.5a1.25 1.25 0 0 1 0-2.5z"/></g></g></svg>