<svg xmlns="http://www.w3.org/2000/svg" width="179" height="179" viewBox="0 0 179 179"><defs><mask id="chifb" width="2" height="2" x="-1" y="-1"><path fill="#fff" d="M30 27h115v125H30z"/><path d="M101.838 31.99c11.53 5.902 19.841 10.547 30.618 16.532 10.43 5.196 12.551 11.57 12.527 24.682 0 11.887.036 21.074 0 34.459.044 13.371-2.616 15.57-13.216 22.493a2120.838 2120.838 0 0 1-29.929 17.13c-9.88 6.41-18.218 6.148-27.234 0-11.011-5.974-18.962-10.548-29.929-17.13-10.595-6.47-14.456-11.41-14.642-24.083.03-12.09-.098-20.75 0-32.87-.037-12.424 4.212-19.033 14.642-24.08 11.196-7.045 18.918-11.479 29.929-17.132 12.113-6.642 15.19-6.692 27.234 0z"/></mask><filter id="chifa" width="145" height="160" x="15" y="12" filterUnits="userSpaceOnUse"><feOffset dy="5" in="SourceGraphic" result="FeOffset1093Out"/><feGaussianBlur in="FeOffset1093Out" result="FeGaussianBlur1094Out" stdDeviation="2 2"/></filter></defs><g><g><path fill="#f0f3f6" d="M89.5 0C138.93 0 179 40.07 179 89.5S138.93 179 89.5 179 0 138.93 0 89.5 40.07 0 89.5 0z"/></g><g><g filter="url(#chifa)"><path fill="none" d="M101.838 31.99c11.53 5.902 19.841 10.547 30.618 16.532 10.43 5.196 12.551 11.57 12.527 24.682 0 11.887.036 21.074 0 34.459.044 13.371-2.616 15.57-13.216 22.493a2120.838 2120.838 0 0 1-29.929 17.13c-9.88 6.41-18.218 6.148-27.234 0-11.011-5.974-18.962-10.548-29.929-17.13-10.595-6.47-14.456-11.41-14.642-24.083.03-12.09-.098-20.75 0-32.87-.037-12.424 4.212-19.033 14.642-24.08 11.196-7.045 18.918-11.479 29.929-17.132 12.113-6.642 15.19-6.692 27.234 0z" mask="url(&quot;#chifb&quot;)"/><path fill-opacity=".19" d="M101.838 31.99c11.53 5.902 19.841 10.547 30.618 16.532 10.43 5.196 12.551 11.57 12.527 24.682 0 11.887.036 21.074 0 34.459.044 13.371-2.616 15.57-13.216 22.493a2120.838 2120.838 0 0 1-29.929 17.13c-9.88 6.41-18.218 6.148-27.234 0-11.011-5.974-18.962-10.548-29.929-17.13-10.595-6.47-14.456-11.41-14.642-24.083.03-12.09-.098-20.75 0-32.87-.037-12.424 4.212-19.033 14.642-24.08 11.196-7.045 18.918-11.479 29.929-17.132 12.113-6.642 15.19-6.692 27.234 0z"/></g><path fill="#fff" d="M101.838 31.99c11.53 5.902 19.841 10.547 30.618 16.532 10.43 5.196 12.551 11.57 12.527 24.682 0 11.887.036 21.074 0 34.459.044 13.371-2.616 15.57-13.216 22.493a2120.838 2120.838 0 0 1-29.929 17.13c-9.88 6.41-18.218 6.148-27.234 0-11.011-5.974-18.962-10.548-29.929-17.13-10.595-6.47-14.456-11.41-14.642-24.083.03-12.09-.098-20.75 0-32.87-.037-12.424 4.212-19.033 14.642-24.08 11.196-7.045 18.918-11.479 29.929-17.132 12.113-6.642 15.19-6.692 27.234 0z"/></g></g></svg>