<svg xmlns="http://www.w3.org/2000/svg" display="none">
  <symbol id="speedometer" viewBox="0 0 512 512">
      <path d="M256 32c141.385 0 256 114.615 256 256 0 96.396-53.288 180.333-132.004 224h-247.992c-78.716-43.667-132.004-127.604-132.004-224 0-141.385 114.615-256 256-256zM400.957 432.957c38.719-38.72 60.043-90.199 60.043-144.957h-45v-32h42.519c-3.507-22.499-10.695-44.073-21.282-64h-53.237v-32h32.142c-4.719-5.881-9.776-11.548-15.185-16.957-23.111-23.11-50.77-40.019-80.957-49.899v34.856h-32v-42.52c-10.491-1.634-21.18-2.48-32-2.48s-21.509 0.845-32 2.48v42.52h-32v-34.856c-30.186 9.88-57.846 26.788-80.957 49.899-5.409 5.409-10.466 11.076-15.185 16.957h32.142v32h-53.238c-10.587 19.927-17.776 41.501-21.282 64h42.52v32h-45c0 54.758 21.324 106.237 60.043 144.957 5.355 5.355 10.962 10.364 16.78 15.043h96.177l18.286-256h27.428l18.286 256h96.177c5.818-4.679 11.426-9.689 16.78-15.043z"/>
	</symbol>
  <symbol id="refresh" viewBox="0 0 23.199 23.199">
			<path d="M1.849,12.282c-0.014-0.226-0.021-0.454-0.021-0.684c0-5.899,4.785-10.684,10.686-10.684c5.899,0,10.685,4.785,10.685,10.685s-4.785,10.686-10.685,10.686c-3.688,0-6.94-1.869-8.861-4.712l2.533-1.707c1.371,2.028,3.694,3.364,6.328,3.364c4.213,0,7.631-3.418,7.631-7.631s-3.416-7.631-7.631-7.631c-4.214,0-7.631,3.418-7.631,7.631c0,0.23,0.01,0.459,0.03,0.684L1.849,12.282L1.849,12.282z M6.81,12.282H4.912H1.849H0l0,0l3.405,3.405L6.81,12.282L6.81,12.282z"/>
  </symbol>
	<symbol id="arrow" viewBox="0 0 451.847 451.847">
		<path d="M225.923,354.706c-8.098,0-16.195-3.092-22.369-9.263L9.27,151.157c-12.359-12.359-12.359-32.397,0-44.751c12.354-12.354,32.388-12.354,44.748,0l171.905,171.915l171.906-171.909c12.359-12.354,32.391-12.354,44.744,0c12.365,12.354,12.365,32.392,0,44.751L248.292,345.449C242.115,351.621,234.018,354.706,225.923,354.706z"/>
	</symbol>
	<symbol id="search" viewBox="0 0 30.239 30.239">
		<path d="M20.194,3.46c-4.613-4.613-12.121-4.613-16.734,0c-4.612,4.614-4.612,12.121,0,16.735c4.108,4.107,10.506,4.547,15.116,1.34c0.097,0.459,0.319,0.897,0.676,1.254l6.718,6.718c0.979,0.977,2.561,0.977,3.535,0c0.978-0.978,0.978-2.56,0-3.535l-6.718-6.72c-0.355-0.354-0.794-0.577-1.253-0.674C24.743,13.967,24.303,7.57,20.194,3.46zM18.073,18.074c-3.444,3.444-9.049,3.444-12.492,0c-3.442-3.444-3.442-9.048,0-12.492c3.443-3.443,9.048-3.443,12.492,0C21.517,9.026,21.517,14.63,18.073,18.074z"/>
	</symbol>
	<symbol id="chat" viewBox="0 0 400.8 400.8">
		<path d="M241.44,15.96c-84.96,0-154.32,53.2-158.8,120C33.04,151.96,0,190.52,0,233.4c0.946,31.575,17.215,60.71,43.6,78.08v67.36c0,3.314,2.686,6,5.999,6.001c1.513,0,2.971-0.572,4.081-1.601l51.36-47.04c8.833,1.447,17.769,2.17,26.72,2.16c56,0,105.28-27.84,124-69.6c6.24-0.48,12.48-1.12,18.72-2.16l63.04,57.68c2.43,2.253,6.226,2.11,8.479-0.319c1.029-1.11,1.601-2.567,1.601-4.081v-82.72c33.84-24,53.2-58.32,53.2-94.48C400.72,72.84,329.28,15.96,241.44,15.96zM131.76,326.36c-9.23,0.011-18.441-0.82-27.52-2.48c-1.838-0.344-3.731,0.188-5.12,1.44l-43.44,40v-57.04c-0.004-1.989-0.992-3.846-2.64-4.96C26.8,285.64,12,259.88,12,233.32c0-36.48,27.92-69.68,70.24-84.72c0.411,5.4,1.294,10.754,2.64,16c5.902,24.347,19.375,46.195,38.48,62.4c1.12,1.04,41.76,41.04,118.96,42C223.68,303.8,180.64,326.36,131.76,326.36z M338.16,229.08c-1.648,1.114-2.636,2.971-2.64,4.96v72l-55.2-50.48c-1.11-1.029-2.567-1.6-4.08-1.6h-1.12c-10.554,1.961-21.265,2.951-32,2.96c-58.08,0-93.2-22.56-110.4-37.04c-17.531-15.183-30.262-35.142-36.64-57.44c-1.551-6.582-2.356-13.318-2.4-20.08c0.48-62.88,66.56-114.48,147.76-114.48S388.72,79.32,388.72,142.6C388.72,175.72,370.32,207.24,338.16,229.08z"/>
	</symbol>
</svg>