<svg xmlns="http://www.w3.org/2000/svg" width="81" height="7" viewBox="0 0 81 7"><g><g opacity=".2"><path fill="#191919" d="M70.54 6.998l-5.006-5.161-5.007 5.161-5.007-5.161-5.007 5.161-5.006-5.161L40.5 6.998l-5.007-5.161-5.007 5.161-5.006-5.161-5.007 5.161-5.007-5.161-5.007 5.161-5.007-5.161-4.56 4.702L0 5.619 5.452 0 10.46 5.16l5.007-5.162 5.007 5.162L25.48-.002l5.006 5.162 5.007-5.162L40.5 5.16l5.007-5.162 5.006 5.162L55.52-.002l5.007 5.162 5.007-5.162L70.54 5.16l5.006-5.162L81 5.62l-.892.919-4.56-4.702z"/></g></g></svg>